<svg width="86" height="87" viewBox="0 0 86 87" fill="none" xmlns="http://www.w3.org/2000/svg">
<path d="M32.094 67.1111H53.9013M43 1V5.72222M72.6987 13.4478L69.3993 16.7864M85 43.5H80.3333M5.66667 43.5H1M16.6007 16.7864L13.3013 13.4478M26.4987 60.1978C23.2361 56.8955 21.0144 52.6883 20.1146 48.1084C19.2147 43.5285 19.6772 38.7814 21.4434 34.4674C23.2096 30.1534 26.2003 26.4662 30.0373 23.872C33.8743 21.2779 38.3854 19.8933 43 19.8933C47.6146 19.8933 52.1256 21.2779 55.9627 23.872C59.7997 26.4662 62.7904 30.1534 64.5566 34.4674C66.3228 38.7814 66.7853 43.5285 65.8854 48.1084C64.9856 52.6883 62.7639 56.8955 59.5013 60.1978L56.944 62.7808C55.482 64.2605 54.3223 66.0172 53.5312 67.9504C52.7401 69.8836 52.3331 71.9556 52.3333 74.0481V76.5556C52.3333 79.0604 51.35 81.4626 49.5997 83.2338C47.8493 85.005 45.4754 86 43 86C40.5246 86 38.1507 85.005 36.4003 83.2338C34.65 81.4626 33.6667 79.0604 33.6667 76.5556V74.0481C33.6667 69.8217 32.0053 65.7653 29.056 62.7808L26.4987 60.1978Z" stroke="#9E9D9D" stroke-width="2" stroke-linecap="round" stroke-linejoin="round"/>
</svg>
