<svg width="100" height="100" viewBox="0 0 100 100" fill="none" xmlns="http://www.w3.org/2000/svg">
<rect width="100" height="100" rx="50" fill="#39319D"/>
<path d="M45.1785 39.08C46.1752 36.1634 50.2052 36.075 51.3868 38.815L51.4868 39.0817L52.8318 43.015C53.1401 43.9171 53.6382 44.7426 54.2926 45.4357C54.9469 46.1289 55.7424 46.6737 56.6252 47.0334L56.9868 47.1684L60.9202 48.5117C63.8368 49.5084 63.9252 53.5384 61.1868 54.72L60.9202 54.82L56.9868 56.165C56.0845 56.4731 55.2587 56.9711 54.5652 57.6255C53.8717 58.2799 53.3267 59.0754 52.9668 59.9584L52.8318 60.3184L51.4885 64.2534C50.4918 67.17 46.4618 67.2584 45.2818 64.52L45.1785 64.2534L43.8352 60.32C43.5271 59.4177 43.0291 58.5919 42.3747 57.8984C41.7204 57.2049 40.9248 56.6599 40.0418 56.3L39.6818 56.165L35.7485 54.8217C32.8302 53.825 32.7418 49.795 35.4818 48.615L35.7485 48.5117L39.6818 47.1684C40.5839 46.8601 41.4094 46.362 42.1025 45.7077C42.7957 45.0533 43.3405 44.2579 43.7002 43.375L43.8352 43.015L45.1785 39.08ZM61.6668 33.3334C61.9786 33.3334 62.2842 33.4208 62.5488 33.5858C62.8133 33.7508 63.0263 33.9867 63.1635 34.2667L63.2435 34.4617L63.8268 36.1717L65.5385 36.755C65.851 36.8612 66.1249 37.0577 66.3256 37.3197C66.5262 37.5817 66.6446 37.8974 66.6656 38.2267C66.6867 38.5561 66.6095 38.8843 66.4439 39.1697C66.2782 39.4551 66.0316 39.6849 65.7352 39.83L65.5385 39.91L63.8285 40.4934L63.2452 42.205C63.1388 42.5174 62.9421 42.7912 62.68 42.9917C62.418 43.1922 62.1022 43.3104 61.7729 43.3312C61.4436 43.3521 61.1155 43.2748 60.8301 43.109C60.5448 42.9432 60.3151 42.6965 60.1702 42.4L60.0902 42.205L59.5068 40.495L57.7952 39.9117C57.4827 39.8055 57.2088 39.609 57.0081 39.347C56.8075 39.085 56.6891 38.7693 56.668 38.44C56.647 38.1107 56.7242 37.7825 56.8898 37.4971C57.0555 37.2116 57.3021 36.9818 57.5985 36.8367L57.7952 36.7567L59.5052 36.1734L60.0885 34.4617C60.2009 34.1324 60.4135 33.8466 60.6966 33.6442C60.9796 33.4419 61.3189 33.3332 61.6668 33.3334Z" fill="white"/>
</svg>
