<svg width="127" height="126" viewBox="0 0 127 126" fill="none" xmlns="http://www.w3.org/2000/svg">
<path d="M59.9956 28.3631L61.2467 24.069C61.4342 23.4257 62.1256 22.967 62.7913 23.0445L67.2339 23.5621L71.26 20.8917C71.8631 20.4916 72.6262 20.5805 72.9643 21.0902L75.221 24.4926L79.6637 25.0101C80.3292 25.0877 80.7169 25.6721 80.5294 26.3154L79.2783 30.6095L81.535 34.0118C81.8732 34.5216 81.6582 35.2592 81.0551 35.6592L77.029 38.3297L75.7779 42.6238C75.5903 43.2671 74.8989 43.7258 74.2333 43.6482L69.7907 43.1307L65.7646 45.8011C65.1614 46.2012 64.3984 46.1124 64.0603 45.6026L61.8035 42.2002L57.3609 41.6827C56.6954 41.6052 56.3077 41.0208 56.4952 40.3774L57.7463 36.0833L55.4895 32.681C55.1514 32.1712 55.3663 31.4337 55.9695 31.0336L59.9956 28.3631ZM58.2861 32.1551L60.4378 35.3991L59.2449 39.4933L63.4807 39.9868L65.6324 43.2308L69.4711 40.6846L73.707 41.1781L74.8997 37.0839L78.7385 34.5377L76.5868 31.2937L77.7796 27.1995L73.5439 26.706L71.3922 23.462L67.5534 26.0082L63.3177 25.5147L62.1248 29.609L58.2861 32.1551ZM70.9611 37.0383C68.5483 38.6387 65.496 38.283 64.1436 36.2441C62.7912 34.2051 63.6507 31.2549 66.0635 29.6545C68.4762 28.0542 71.5286 28.4097 72.881 30.4487C74.2334 32.4877 73.3738 35.438 70.9611 37.0383ZM69.7367 35.1923C70.943 34.3922 71.3729 32.9171 70.6967 31.8976C70.0204 30.878 68.4942 30.7003 67.2879 31.5005C66.0815 32.3006 65.6517 33.7757 66.328 34.7952C67.0042 35.8148 68.5303 35.9925 69.7367 35.1923Z" fill="#9E9D9D"/>
<path d="M75.5746 80.9138L105.996 60.7356C108.301 59.2066 109.872 56.7749 110.362 53.9756C110.853 51.1762 110.223 48.2385 108.611 45.8086L84.3039 9.16173C82.6923 6.73189 80.2308 5.00897 77.4612 4.372C74.6915 3.73503 71.8404 4.23618 69.5352 5.76521L8.6919 46.1216C6.38667 47.6507 4.81608 50.0823 4.32566 52.8817C3.83524 55.681 4.46516 58.6187 6.07683 61.0486L30.3842 97.6955C31.9958 100.125 34.4573 101.848 37.2269 102.485C39.9966 103.122 42.8477 102.621 45.1529 101.092L75.5746 80.9138ZM75.5746 80.9138L87.7282 99.2373M87.7282 99.2373L105.112 87.7068M87.7282 99.2373L70.3444 110.768" stroke="#9E9D9D" stroke-width="2" stroke-linecap="round" stroke-linejoin="round"/>
<path d="M31.0247 58.0513C30.8302 57.7581 30.787 57.3819 30.9047 57.0053C31.0223 56.6288 31.2911 56.2828 31.6519 56.0435L42.5357 48.8244C42.8965 48.5851 43.3198 48.472 43.7124 48.5101C44.1051 48.5482 44.4349 48.7343 44.6294 49.0275C44.8239 49.3207 44.867 49.697 44.7494 50.0735C44.6318 50.4501 44.363 50.7961 44.0022 51.0354L33.1184 58.2544C32.7576 58.4938 32.3343 58.6068 31.9416 58.5687C31.549 58.5306 31.2192 58.3445 31.0247 58.0513ZM35.3182 61.5709C34.9573 61.8102 34.6886 62.1562 34.5709 62.5328C34.4533 62.9093 34.4965 63.2856 34.6909 63.5788C34.8854 63.872 35.2153 64.0581 35.6079 64.0962C36.0006 64.1342 36.4239 64.0212 36.7847 63.7819L47.6684 56.5628C48.0293 56.3235 48.2981 55.9775 48.4157 55.601C48.5333 55.2244 48.4901 54.8482 48.2957 54.555C48.1012 54.2618 47.7714 54.0757 47.3787 54.0376C46.9861 53.9995 46.5628 54.1125 46.2019 54.3519L35.3182 61.5709ZM38.3572 69.1062C38.1627 68.813 38.1196 68.4367 38.2372 68.0602C38.3548 67.6837 38.6236 67.3377 38.9844 67.0983L43.0658 64.3912C43.4267 64.1519 43.85 64.0388 44.2426 64.0769C44.6353 64.115 44.9651 64.3011 45.1596 64.5943C45.354 64.8875 45.3972 65.2638 45.2796 65.6403C45.162 66.0168 44.8932 66.3628 44.5324 66.6022L40.4509 69.3093C40.0901 69.5486 39.6668 69.6617 39.2742 69.6236C38.8815 69.5855 38.5517 69.3994 38.3572 69.1062ZM26.5191 48.305C26.3247 48.0119 25.9948 47.8257 25.6022 47.7876C25.2095 47.7496 24.7862 47.8626 24.4254 48.1019C24.0646 48.3413 23.7958 48.6873 23.6782 49.0638C23.5605 49.4404 23.6037 49.8166 23.7982 50.1098L24.5314 51.2153L23.171 52.1177C22.0885 52.8356 21.2821 53.8736 20.9293 55.0033C20.5764 56.1329 20.7059 57.2617 21.2893 58.1413L34.4879 78.04C35.0713 78.9196 36.0608 79.478 37.2387 79.5922C38.4167 79.7065 39.6866 79.3674 40.769 78.6494L53.3153 70.3276C54.3363 69.6506 55.1141 68.6871 55.4952 67.6274L58.7839 58.4738C58.995 57.8863 59.0775 57.2874 59.0262 56.7153C58.9748 56.1432 58.7908 55.6103 58.4856 55.1504L48.4987 40.0937C47.9153 39.2141 46.9258 38.6558 45.7479 38.5415C44.5699 38.4272 43.3 38.7664 42.2176 39.4844L40.8571 40.3867L40.1238 39.2812C39.9294 38.9881 39.5995 38.8019 39.2069 38.7638C38.8142 38.7258 38.3909 38.8388 38.0301 39.0781C37.6693 39.3175 37.4005 39.6635 37.2829 40.04C37.1653 40.4166 37.2084 40.7928 37.4029 41.086L38.1362 42.1915L34.0547 44.8986L33.3215 43.7931C33.127 43.5 32.7972 43.3138 32.4045 43.2757C32.0119 43.2377 31.5886 43.3507 31.2278 43.59C30.8669 43.8294 30.5982 44.1754 30.4805 44.5519C30.3629 44.9285 30.4061 45.3047 30.6005 45.5979L31.3338 46.7034L27.2524 49.4105L26.5191 48.305ZM24.6375 54.3286L43.6841 41.6953C44.0449 41.456 44.4682 41.3429 44.8608 41.381C45.2535 41.4191 45.5833 41.6052 45.7778 41.8984L55.3101 56.2698L49.8682 59.8793C48.9662 60.4776 48.2942 61.3426 48.0001 62.284C47.7061 63.2253 47.814 64.166 48.3002 64.899L50.8665 68.7682L39.3025 76.4384C38.9417 76.6777 38.5184 76.7908 38.1258 76.7527C37.7331 76.7146 37.4033 76.5285 37.2088 76.2353L24.0103 56.3365C23.8158 56.0433 23.7726 55.6671 23.8902 55.2905C24.0079 54.914 24.2767 54.568 24.6375 54.3286ZM52.9899 66.0624L51.0211 63.0942C50.9239 62.9476 50.9023 62.7595 50.9611 62.5712C51.0199 62.3829 51.1543 62.2099 51.3347 62.0903L55.3821 59.4057L52.9899 66.0624Z" fill="#9E9D9D"/>
<line x1="67.4941" y1="57.6545" x2="91.3024" y2="41.8629" stroke="#9E9D9D" stroke-width="2"/>
<line x1="71.3066" y1="63.403" x2="95.1149" y2="47.6114" stroke="#9E9D9D" stroke-width="2"/>
<line x1="42.8086" y1="90.5831" x2="98.928" y2="53.3599" stroke="#9E9D9D" stroke-width="2"/>
</svg>
