<?xml version="1.0" encoding="UTF-8"?>
<svg version="1.1" xmlns="http://www.w3.org/2000/svg" width="1020" height="793">
<path d="M0 0 C1.38447218 -0.00525911 1.38447218 -0.00525911 2.7969135 -0.01062447 C5.91268553 -0.01998329 9.02827248 -0.01500361 12.14405251 -0.01015663 C14.39124633 -0.01389063 16.63843885 -0.01849114 18.8856293 -0.02388728 C25.07888073 -0.03616358 31.27207834 -0.03585138 37.46533918 -0.03349853 C43.4528992 -0.03313329 49.44044328 -0.04210417 55.42799549 -0.0507243 C69.19129422 -0.07008489 82.95457808 -0.07569328 96.71788882 -0.07683842 C107.34465284 -0.07775682 117.97141102 -0.0818699 128.59817314 -0.08823967 C131.65491346 -0.0900347 134.71165378 -0.09181433 137.76839411 -0.09358943 C138.52826553 -0.09403152 139.28813695 -0.09447362 140.07103477 -0.09492911 C161.45011678 -0.10724065 182.82919676 -0.11512992 204.20828247 -0.11424255 C205.41779767 -0.11419582 205.41779767 -0.11419582 206.65174752 -0.11414814 C210.7388158 -0.11398192 214.82588407 -0.11378383 218.91295235 -0.11357872 C219.72468792 -0.11353883 220.5364235 -0.11349894 221.37275712 -0.11345784 C223.01428463 -0.11337697 224.65581213 -0.11329337 226.29733963 -0.11320706 C251.84193929 -0.1119813 277.38648586 -0.12699794 302.93107033 -0.15435219 C331.61681648 -0.18505733 360.30252775 -0.20228565 388.98829138 -0.20042574 C392.04566042 -0.20027648 395.10302945 -0.20017907 398.16039848 -0.20011711 C398.91322496 -0.2000938 399.66605143 -0.20007049 400.44169082 -0.20004648 C412.56904928 -0.19998487 424.69636174 -0.21276941 436.82370651 -0.22998164 C449.00671918 -0.24691556 461.1896644 -0.24892958 473.37268232 -0.235763 C479.97587094 -0.22901189 486.57892593 -0.22919438 493.1821022 -0.2464695 C499.22213977 -0.26210928 505.26187648 -0.25943004 511.3019063 -0.24190123 C513.49165151 -0.23881121 515.68141868 -0.24253828 517.87113802 -0.25362138 C520.83930084 -0.26765427 523.80639542 -0.25722541 526.77452087 -0.24050903 C527.63198367 -0.25044539 528.48944646 -0.26038175 529.37289298 -0.27061921 C534.72253355 -0.20657472 537.77765824 0.69303826 542.01310158 4.25726891 C546.17503095 9.76901321 547.1382427 13.43511644 547.13335609 20.26170921 C547.13421052 20.97889415 547.13506494 21.69607909 547.13594526 22.4349969 C547.13759564 24.84412255 547.1320859 27.25317895 547.12662697 29.6622982 C547.12634498 31.3868567 547.12650307 33.11141531 547.12706947 34.83597374 C547.12735697 39.52367359 547.12146784 44.21134797 547.11449552 48.89904189 C547.10825415 53.79577808 547.10765756 58.69251482 547.10647011 63.58925438 C547.10335911 72.86460195 547.09514882 82.13993777 547.08512062 91.41528016 C547.07395232 101.97379296 547.06844722 112.5323063 547.06342518 123.09082353 C547.05296603 144.81297856 547.03537105 166.53512299 547.01310158 188.25726891 C547.94608184 188.25612974 548.87906211 188.25499058 549.84031451 188.2538169 C605.10395774 188.18660553 660.36759718 188.13522866 715.63127307 188.10407292 C722.26294384 188.10032068 728.89461453 188.09643772 735.52628517 188.09247398 C736.51618905 188.09188557 736.51618905 188.09188557 737.52609098 188.09128527 C759.58679927 188.07810066 781.64748169 188.05422627 803.70817514 188.02581052 C825.6507834 187.99778204 847.593379 187.98109806 869.53600442 187.97500342 C883.08196188 187.97088167 896.62785116 187.95785113 910.17378764 187.9335195 C919.45557972 187.91769388 928.73733643 187.91286134 938.01914103 187.91676477 C943.37878637 187.91869127 948.73831237 187.91568348 954.09793663 187.89965248 C959.00193493 187.88509101 963.90573323 187.88429211 968.80974059 187.89457222 C970.58642103 187.89584343 972.36311377 187.89200617 974.13976987 187.88261936 C976.55073822 187.87061907 978.96098009 187.87704499 981.3719368 187.88812542 C982.0652954 187.88024438 982.758654 187.87236334 983.47302347 187.86424348 C989.52429333 187.92729374 993.3541416 189.78263781 997.82560158 193.75726891 C1001.39018807 197.83108204 1001.15796931 201.5370698 1001.14732265 206.68152809 C1001.14967488 207.44772573 1001.15202712 208.21392336 1001.15445063 209.00333911 C1001.16115086 211.59176025 1001.1606821 214.18013131 1001.1602726 216.76856041 C1001.16357058 218.63469607 1001.16729601 220.50083102 1001.17141408 222.36696506 C1001.18144955 227.51158672 1001.18515335 232.65619672 1001.18780339 237.80082679 C1001.19170181 243.34288706 1001.20128041 248.88493805 1001.21001625 254.42699242 C1001.22979287 267.81854847 1001.23984801 281.21010529 1001.24874404 294.60167229 C1001.25312464 300.90370872 1001.25849201 307.20574431 1001.26373291 313.50778008 C1001.28074575 334.44937647 1001.29526596 355.39097269 1001.30248165 376.33257484 C1001.30295641 377.68708151 1001.3034323 379.04158818 1001.30390931 380.39609484 C1001.30426388 381.40367359 1001.30426388 381.40367359 1001.3046256 382.43160747 C1001.30582681 385.8349204 1001.30704226 389.23823333 1001.30826759 392.64154625 C1001.30850774 393.31694602 1001.30874789 393.99234578 1001.30899532 394.68821221 C1001.31688978 416.5905802 1001.34032465 438.49289407 1001.37282354 460.39523842 C1001.40711279 483.54640319 1001.42683078 506.69753758 1001.43012589 529.84873176 C1001.43229367 542.47088931 1001.44108161 555.09296731 1001.46658707 567.71510124 C1001.4882531 578.46216543 1001.49636467 589.20913073 1001.48662028 599.95621428 C1001.48206381 605.44160141 1001.48404 610.92678435 1001.50338173 616.41214371 C1001.52092988 621.43208786 1001.52008378 626.45167758 1001.50448444 631.47162506 C1001.50209564 633.28928341 1001.50649734 635.10696577 1001.51831309 636.92458728 C1001.5333699 639.39337244 1001.52380341 641.86089166 1001.5080862 644.32964516 C1001.51830841 645.037167 1001.52853062 645.74468885 1001.53906259 646.47365075 C1001.46374186 651.88559596 999.99644887 654.8947993 997.01310158 659.25726891 C991.10066031 663.9775114 985.65687261 663.80872289 978.29459572 663.71137047 C977.13289864 663.71195457 975.97120155 663.71253868 974.77430153 663.71314049 C970.94864579 663.71036202 967.12377685 663.67927929 963.29825783 663.64789391 C960.64023965 663.64043067 957.9822646 663.6345413 955.32424355 663.63074303 C949.05217418 663.61833807 942.78038554 663.58555054 936.50843948 663.54534507 C929.36455924 663.50054967 922.2206652 663.47862088 915.07667935 663.45856333 C900.38867689 663.41681536 885.70089414 663.34651199 871.01310158 663.25726891 C871.01863234 664.16753129 871.01863234 664.16753129 871.02427483 665.09618282 C871.11270223 679.87793186 871.17884827 694.65965529 871.22035027 709.44160366 C871.24095504 716.59013507 871.26903541 723.73848967 871.31485939 730.88690758 C871.35479143 737.11918221 871.38054955 743.35132876 871.38945556 749.58372778 C871.39465969 752.88228215 871.40896054 756.18038578 871.4360218 759.47884369 C871.46506611 763.16570428 871.46905696 766.85180642 871.46720314 770.53876305 C871.48158424 771.626334 871.49596535 772.71390495 871.51078224 773.8344326 C871.47624299 780.18434067 871.03141325 784.22404619 867.01310158 789.25726891 C861.45630437 793.16383738 857.39228137 793.83493144 850.69388103 793.76342678 C849.77141399 793.76954014 848.84894694 793.7756535 847.89852634 793.78195211 C844.8023495 793.79757301 841.7069536 793.7846772 838.61077309 793.7719326 C836.37066198 793.77725685 834.13055445 793.78432183 831.89045376 793.79297966 C825.73058304 793.81164976 819.57095202 793.80528684 813.41107118 793.79482663 C807.45148435 793.78856375 801.49194459 793.80103235 795.53237277 793.81288161 C782.59005302 793.83782066 769.6478064 793.83970383 756.70546962 793.8316075 C745.37885011 793.82453652 734.052259 793.82447553 722.72563934 793.83147049 C721.20668688 793.83238182 719.68773441 793.83329258 718.16878195 793.83420278 C715.8798997 793.8355859 713.59101746 793.83697699 711.30213523 793.83838891 C690.02057205 793.8513709 668.73901839 793.85648246 647.45745373 793.84485531 C646.65512447 793.84441734 645.8527952 793.84397937 645.02615293 793.84352812 C638.51054335 793.83992125 631.9949339 793.8360865 625.47932446 793.83223719 C600.06175135 793.81738872 574.64428569 793.82616985 549.22672462 793.85419273 C520.67313837 793.88561285 492.11961572 793.90059318 463.56601185 793.89039272 C460.52213444 793.88935593 457.47825701 793.88836871 454.43437958 793.88740921 C453.31015084 793.88703588 453.31015084 793.88703588 452.16321041 793.88665501 C440.84424144 793.88321344 429.52532859 793.89252679 418.20637131 793.90818024 C405.3356412 793.92593869 392.46504781 793.92609616 379.59432358 793.90282858 C373.02527427 793.89141959 366.45643003 793.88857871 359.88738632 793.90712929 C353.87628502 793.9238861 347.86566693 793.91764753 341.8545972 793.8929125 C339.67769545 793.88801309 337.50075507 793.89158845 335.32388551 793.90439994 C332.36805988 793.92054316 329.41391291 793.90597164 326.45816326 793.8836813 C325.61002073 793.89567298 324.7618782 793.90766465 323.88803437 793.92001972 C317.8267952 793.82648134 313.70754245 792.1186977 309.01310158 788.25726891 C305.57201521 783.70615468 304.88774629 779.61991031 304.89005375 774.01739693 C304.8880627 772.95048048 304.88607165 771.88356403 304.88402027 770.78431678 C304.88693311 769.61311986 304.88984595 768.44192295 304.89284706 767.23523521 C304.89156542 765.36800879 304.89156542 765.36800879 304.89025789 763.46306062 C304.88889393 760.00599852 304.89202547 756.54899283 304.89703596 753.09193754 C304.90134945 749.36463833 304.89989339 745.6373409 304.89913368 741.9100399 C304.89860902 735.45161843 304.90174982 728.99320706 304.90737152 722.53478813 C304.9154943 713.19696823 304.91810254 703.8591532 304.91935951 694.52133015 C304.9215488 679.37178353 304.92820558 664.22224229 304.93766212 649.07269859 C304.94683941 634.35525095 304.9539187 619.63780477 304.95816994 604.92035484 C304.95856402 603.5598612 304.95856402 603.5598612 304.95896607 602.17188284 C304.96027109 597.62180772 304.96153481 593.0717326 304.96277797 588.52165747 C304.97314677 550.76685748 304.99076176 513.01206361 305.01310158 475.25726891 C304.35807278 475.25878779 303.70304398 475.26030667 303.02816582 475.26187158 C264.20644626 475.35138252 225.38474001 475.42001445 186.56293815 475.46153022 C181.90163178 475.46653305 177.24032561 475.47171034 172.57901955 475.47699547 C171.18704548 475.47856933 171.18704548 475.47856933 169.76695073 475.48017499 C154.740882 475.49758055 139.71487448 475.52911908 124.68884206 475.56588009 C109.27091805 475.60328529 93.85302611 475.62550387 78.43505859 475.63362288 C68.92121404 475.63911153 59.4075425 475.65644738 49.8937512 475.68893477 C43.36991742 475.71007745 36.84617309 475.71646951 30.32230753 475.71127442 C26.55825249 475.70871224 22.7944998 475.71264176 19.0304985 475.73409081 C14.94743491 475.75718783 10.86501451 475.74921635 6.78190041 475.73828697 C5.59511822 475.74993834 4.40833603 475.7615897 3.18559074 475.77359414 C-3.67828295 475.72386523 -8.15720557 474.96611453 -13.98689842 471.25726891 C-18.46556028 466.4340946 -19.13479148 463.33428873 -19.12670612 456.94323349 C-19.12965755 456.17680092 -19.13260897 455.41036835 -19.13564983 454.62071055 C-19.14438427 452.02546249 -19.1459254 449.43025877 -19.14752769 446.83499718 C-19.15225571 444.96631216 -19.15740621 443.09762817 -19.16294533 441.22894537 C-19.17688865 436.07259682 -19.18444552 430.91625534 -19.19091833 425.7598927 C-19.19727854 421.34240779 -19.20735016 416.92493458 -19.21747898 412.50745694 C-19.25084255 397.95030204 -19.2723318 383.39314001 -19.29067883 368.83595937 C-19.2954717 365.04689145 -19.30045528 361.25782382 -19.30548406 357.4687562 C-19.33645327 333.95409496 -19.36315161 310.43943091 -19.37990284 286.9247551 C-19.38384016 281.47520887 -19.38785198 276.02566269 -19.39192772 270.57611656 C-19.39242939 269.89906982 -19.39293106 269.22202309 -19.39344793 268.52445978 C-19.40986537 246.57386719 -19.44832016 224.62338609 -19.49921482 202.67284834 C-19.55291102 179.47176693 -19.5846201 156.27074939 -19.59209973 133.06959784 C-19.59676693 120.41996009 -19.61157002 107.77050682 -19.65184402 95.12092781 C-19.68609779 84.34895252 -19.70010218 73.57719496 -19.68741988 62.80516832 C-19.68158212 57.30741335 -19.68553585 51.81011913 -19.71558952 46.31243324 C-19.74287615 41.27992014 -19.74251043 36.24819681 -19.72007907 31.21566673 C-19.71684654 29.39458863 -19.72378023 27.57345837 -19.7418763 25.75246732 C-19.89521745 9.32678311 -19.89521745 9.32678311 -14.66442066 3.56329405 C-10.02637927 -0.047626 -5.70706847 -0.02721083 0 0 Z M5.01310158 24.25726891 C5.01310158 164.83726891 5.01310158 305.41726891 5.01310158 450.25726891 C104.01310158 450.25726891 203.01310158 450.25726891 305.01310158 450.25726891 C305.34310158 411.31726891 305.67310158 372.37726891 306.01310158 332.25726891 C308.85263896 325.63168168 310.46059349 321.99687493 317.01310158 319.25726891 C319.34814262 318.99555588 319.34814262 318.99555588 321.97385597 318.97879601 C323.47140923 318.96205078 323.47140923 318.96205078 324.99921608 318.94496727 C326.08822212 318.94280708 327.17722816 318.9406469 328.29923439 318.93842125 C329.45073982 318.92837563 330.60224525 318.91833 331.78864479 318.90797997 C335.5978336 318.8770693 339.40695188 318.86009068 343.21622658 318.84320641 C345.85610502 318.82450113 348.49597744 318.8049282 351.13584328 318.7845211 C357.37596924 318.73774743 363.61611236 318.70099654 369.85632396 318.66784823 C376.96153729 318.62961683 384.06665916 318.58020936 391.17179537 318.52986407 C405.78549369 318.42656526 420.39925754 318.33729819 435.01310158 318.25726891 C435.01668411 317.37019831 435.01668411 317.37019831 435.02033901 316.4652071 C435.07954011 302.05882166 435.15512281 287.65259055 435.24881649 273.24638844 C435.2937338 266.27957169 435.33315773 259.31280559 435.35953712 252.34589195 C435.38501202 245.62197252 435.42594396 238.89830917 435.47628784 232.1745224 C435.492968 229.60974562 435.50447509 227.04492978 435.51071548 224.48010635 C435.52034367 220.88662512 435.54838936 217.29372285 435.58072853 213.70038414 C435.57929344 212.6408654 435.57785835 211.58134666 435.57637978 210.4897213 C435.66465816 203.5498704 436.35784236 198.42644926 440.95060158 192.94476891 C461.89850817 175.80557261 494.94953512 188.61811646 522.01310158 188.25726891 C522.01310158 134.13726891 522.01310158 80.01726891 522.01310158 24.25726891 C351.40310158 24.25726891 180.79310158 24.25726891 5.01310158 24.25726891 Z M460.01310158 213.25726891 C460.01310158 247.90726891 460.01310158 282.55726891 460.01310158 318.25726891 C480.47310158 318.25726891 500.93310158 318.25726891 522.01310158 318.25726891 C522.01310158 283.60726891 522.01310158 248.95726891 522.01310158 213.25726891 C501.55310158 213.25726891 481.09310158 213.25726891 460.01310158 213.25726891 Z M547.01310158 213.25726891 C547.01310158 247.90726891 547.01310158 282.55726891 547.01310158 318.25726891 C561.18066383 318.27128746 561.18066383 318.27128746 575.63443947 318.28558922 C605.84922939 318.31829163 636.06395701 318.37057371 666.27869487 318.43518986 C670.97133208 318.44520741 675.66396964 318.45505152 680.35660744 318.46478844 C681.29083369 318.46672981 682.22505994 318.46867118 683.18759608 318.47067139 C698.31776874 318.50169903 713.44792623 318.51867417 728.57812471 318.53046313 C744.10118218 318.54287072 759.62415997 318.57036327 775.14716715 318.61188197 C784.72699741 318.63702859 794.30669556 318.65038534 803.8865593 318.64869848 C810.45434744 318.64866874 817.02200092 318.66328138 823.58973659 318.68943319 C827.37996169 318.70409215 831.16991065 318.71227108 834.9601593 318.70307159 C839.06991269 318.69326538 843.17893478 318.71428022 847.28862953 318.73828697 C848.48610646 318.73052655 849.68358338 318.72276614 850.91734749 318.71477056 C857.47171137 318.78271924 861.78981169 319.13952155 867.01310158 323.25726891 C869.5954762 326.84463326 870.38897963 329.31690664 870.39786243 333.71389294 C870.40731898 334.80370081 870.41677552 335.89350868 870.42651862 337.01634103 C870.42167104 338.2079708 870.41682347 339.39960056 870.41182899 340.62734032 C870.41847582 341.89751367 870.42512265 343.16768703 870.43197089 344.47635049 C870.45000795 347.99960005 870.44943775 351.52263896 870.44584143 355.04592383 C870.44521802 358.84617883 870.46183356 362.64636288 870.47635841 366.4465847 C870.49915988 373.02994688 870.51103219 379.6132561 870.51548767 386.19665527 C870.52194534 395.71513794 870.54487595 405.2335248 870.57183097 414.75196888 C870.61511579 430.1948842 870.64507286 445.63779548 870.66666603 461.08075523 C870.68767064 476.08240299 870.71494121 491.08401777 870.75065041 506.08563805 C870.75284923 507.01029306 870.75504806 507.93494807 870.75731351 508.88762293 C870.76838303 513.5263321 870.77957587 518.16504096 870.79083002 522.80374968 C870.88403914 561.28823618 870.95317381 599.77271337 871.01310158 638.25726891 C905.99310158 638.25726891 940.97310158 638.25726891 977.01310158 638.25726891 C977.01310158 498.00726891 977.01310158 357.75726891 977.01310158 213.25726891 C835.11310158 213.25726891 693.21310158 213.25726891 547.01310158 213.25726891 Z M338.01310158 351.25726891 C338.01310158 383.92726891 338.01310158 416.59726891 338.01310158 450.25726891 C370.02310158 450.25726891 402.03310158 450.25726891 435.01310158 450.25726891 C435.01310158 417.58726891 435.01310158 384.91726891 435.01310158 351.25726891 C403.00310158 351.25726891 370.99310158 351.25726891 338.01310158 351.25726891 Z M460.01310158 351.25726891 C460.01310158 383.92726891 460.01310158 416.59726891 460.01310158 450.25726891 C480.47310158 450.25726891 500.93310158 450.25726891 522.01310158 450.25726891 C522.01310158 417.58726891 522.01310158 384.91726891 522.01310158 351.25726891 C501.55310158 351.25726891 481.09310158 351.25726891 460.01310158 351.25726891 Z M547.01310158 351.25726891 C546.68310158 387.55726891 546.35310158 423.85726891 546.01310158 461.25726891 C542.50272813 469.44814027 542.50272813 469.44814027 537.01310158 473.25726891 C512.10437932 479.48444947 485.68601611 474.90558514 460.01310158 475.25726891 C460.01310158 529.04726891 460.01310158 582.83726891 460.01310158 638.25726891 C585.08310158 638.25726891 710.15310158 638.25726891 839.01310158 638.25726891 C839.01310158 543.54726891 839.01310158 448.83726891 839.01310158 351.25726891 C742.65310158 351.25726891 646.29310158 351.25726891 547.01310158 351.25726891 Z M338.01310158 475.25726891 C338.01310158 569.30726891 338.01310158 663.35726891 338.01310158 760.25726891 C503.34310158 760.25726891 668.67310158 760.25726891 839.01310158 760.25726891 C839.01310158 728.24726891 839.01310158 696.23726891 839.01310158 663.25726891 C827.18015236 663.25316002 815.34720314 663.24905113 803.1556797 663.24481773 C765.30581067 663.22816412 727.45600382 663.1870097 689.60617426 663.13041328 C683.72814509 663.12164641 677.85011563 663.11309662 671.97208595 663.10468102 C670.80186345 663.10300195 669.63164094 663.10132289 668.42595714 663.09959295 C649.47150163 663.0729145 630.51707637 663.06382726 611.56260401 663.06122748 C592.11726965 663.05816931 572.6720228 663.03623844 553.22672796 662.99674433 C541.2254407 662.97296543 529.22432808 662.96395239 517.22302049 662.9737558 C508.99613139 662.97906664 500.76939894 662.96606536 492.54255444 662.938606 C487.79422518 662.92329974 483.04624648 662.91612319 478.29790688 662.93067169 C473.94997594 662.94381523 469.60272465 662.93394481 465.25487036 662.90583118 C463.68274277 662.89971691 462.11055495 662.90202154 460.53845841 662.91363964 C446.38239298 663.01006302 446.38239298 663.01006302 440.39876395 658.64665574 C433.87566765 652.10602632 435.57165891 640.9095796 435.58072853 632.37640953 C435.57170368 630.66095845 435.56137469 628.94551381 435.54984474 627.23007774 C435.52233351 622.59018641 435.51299821 617.95041763 435.50699067 613.31045532 C435.4975917 608.45507159 435.47138707 603.59977885 435.44698524 598.74445152 C435.40335847 589.55783412 435.37478802 580.37123443 435.35166186 571.18454504 C435.31952456 558.76518328 435.26405809 546.34592696 435.20991611 533.92664528 C435.12527322 514.37021788 435.07173891 494.81383161 435.01310158 475.25726891 C403.00310158 475.25726891 370.99310158 475.25726891 338.01310158 475.25726891 Z " fill="#6E23A5" transform="translate(18.98689842224121,-0.25726890563964844)"/>
</svg>
