<svg width="100" height="100" viewBox="0 0 100 100" fill="none" xmlns="http://www.w3.org/2000/svg">
<rect width="100" height="100" rx="50" fill="#39319D"/>
<g clip-path="url(#clip0_303_342)">
<path d="M31.9 41.425H68.1V66.1875H70V33.8125H68.1V39.525H31.9V33.8125H30V66.1875H31.9V41.425ZM31.9 66.1875H68.1V68.1H31.9V66.1875Z" fill="white"/>
<path d="M35.7119 45.2375V62.3875H64.2869V45.2375H35.7119ZM47.1369 54.7625H45.2369V56.6625H43.3369V58.575H41.4244V56.6625H43.3369V54.7625H45.2369V52.8625H43.3369V50.95H41.4244V49.05H43.3369V50.95H45.2369V52.8625H47.1369V54.7625ZM58.5744 54.7625H50.9494V52.8625H58.5744V54.7625ZM41.4244 35.7125H43.3369V37.625H41.4244V35.7125ZM37.6244 35.7125H39.5244V37.625H37.6244V35.7125ZM33.8119 35.7125H35.7119V37.625H33.8119V35.7125ZM31.8994 31.9H68.0994V33.8125H31.8994V31.9Z" fill="white"/>
</g>
<defs>
<clipPath id="clip0_303_342">
<rect width="40" height="40" fill="white" transform="translate(30 30)"/>
</clipPath>
</defs>
</svg>
