<svg width="100" height="100" viewBox="0 0 100 100" fill="none" xmlns="http://www.w3.org/2000/svg">
<rect width="100" height="100" rx="50" fill="#442F9F"/>
<path d="M63.3337 40C63.3337 36.3867 57.2287 33.3334 50.0003 33.3334C42.772 33.3334 36.667 36.3867 36.667 40V43.3334C36.667 46.9467 42.772 50 50.0003 50C57.2287 50 63.3337 46.9467 63.3337 43.3334V40ZM50.0003 61.6667C42.772 61.6667 36.667 58.6134 36.667 55V60C36.667 63.6134 42.772 66.6667 50.0003 66.6667C57.2287 66.6667 63.3337 63.6134 63.3337 60V55C63.3337 58.6134 57.2287 61.6667 50.0003 61.6667Z" fill="white"/>
<path d="M63.3337 46.6666C63.3337 50.28 57.2287 53.3333 50.0003 53.3333C42.772 53.3333 36.667 50.28 36.667 46.6666V51.6666C36.667 55.28 42.772 58.3333 50.0003 58.3333C57.2287 58.3333 63.3337 55.28 63.3337 51.6666V46.6666Z" fill="white"/>
</svg>
